<?xml version="1.0" encoding="UTF-8"?>
<svg version="1.1" width="150" height="150" viewBox="0 0 120 120" xmlns="http://www.w3.org/2000/svg">
<circle cx="60" cy="60" r="60" fill="#fffbdb"/>
<g transform="translate(.00080306 .33146)">
<path transform="rotate(7.3606)" d="m64.142 14.305a23.232 37.699 0 0 0-20.2 37.376 23.232 37.699 0 0 0 23.232 37.7 23.232 37.699 0 0 0 0.33998-0.036041c2.8576-7.2077 5.1715-22.132 5.5058-37.111 0.16865-7.5558-0.15737-15.072-1.1129-21.681-0.95042-6.5734-2.518-12.335-4.9597-16.548a23.232 37.699 0 0 0-2.8051 0.29934zm3.0325-0.3228a23.232 37.699 3e-7 0 1 2.6906 0.26293 23.232 37.699 0 0 0-2.6906-0.26293zm2.8802 0.29752a23.232 37.699 3e-7 0 1 2.6012 0.7747 23.232 37.699 0 0 0-2.6012-0.7747zm2.7696 0.84354a23.232 37.699 3e-7 0 1 2.5772 1.3056 23.232 37.699 0 0 0-2.5772-1.3056zm2.6051 1.3236a23.232 37.699 3e-7 0 1 2.4612 1.7952 23.232 37.699 0 0 0-2.4612-1.7952zm2.5913 1.9024a23.232 37.699 3e-7 0 1 2.2643 2.2224 23.232 37.699 0 0 0-2.2643-2.2224zm2.4325 2.4114a23.232 37.699 3e-7 0 1 2.1065 2.678 23.232 37.699 0 0 0-2.1065-2.678zm2.1555 2.7524a23.232 37.699 3e-7 0 1 1.9308 3.132 23.232 37.699 0 0 0-1.9308-3.132zm1.9645 3.1946a23.232 37.699 3e-7 0 1 1.6583 3.4311 23.232 37.699 0 0 0-1.6583-3.4311zm1.7689 3.6925a23.232 37.699 3e-7 0 1 1.3801 3.7013 23.232 37.699 0 0 0-1.3801-3.7013zm1.428 3.8586a23.232 37.699 3e-7 0 1 1.1208 4.0421 23.232 37.699 0 0 0-1.1208-4.0421zm1.1255 4.0631a23.232 37.699 3e-7 0 1 0.80874 4.2025 23.232 37.699 0 0 0-0.80874-4.2025zm0.84683 4.4516a23.232 37.699 3e-7 0 1 0.48495 4.2877 23.232 37.699 0 0 0-0.48495-4.2877zm0.4961 4.4654a23.232 37.699 3e-7 0 1 0.16604 4.4411 23.232 37.699 3e-7 0 1-22.885 37.664 23.232 37.699 0 0 0 22.887-37.662 23.232 37.699 0 0 0-0.16823-4.4428z" fill="#5d421b"/>
<path d="m64.601 22.467c1.8819 4.4905 2.6988 10.405 2.7993 17.046 0.101 6.6769-0.5376 14.173-1.6729 21.645-2.2505 14.812-6.4578 29.316-10.215 36.098a23.232 37.699 7.3606 0 0 27.528-34.42 23.232 37.699 7.3606 0 0-18.21-40.364 23.232 37.699 7.3606 0 0-0.22916-0.005293z" color="#000000" fill="#473015" fill-rule="evenodd" stroke-width="1.949"/>
<path d="m62.702 18.164c-0.25099 1.4145-0.71316 2.8475-0.83739 4.2506 2.7096 6.3398 2.947 13.381 2.8722 20.175-0.17025 7.8397-1.1519 15.643-2.5543 23.352-0.25729 1.3012-0.56299 2.9613-0.87767 4.3924-1.7312 7.95-3.7769 15.899-7.1151 23.344-0.4117 1.0315-1.1113 1.9722-1.4602 3.0004 0.308 4.3299 0.61045 8.6602 0.91581 12.99 2.7013-5.1103 5.7977-10.048 7.7328-15.524 3.9931-10.913 6.4624-22.333 8.135-33.815 1.4159-10.408 2.2152-21.005 0.96825-31.473-0.52228-4.462-1.6449-8.852-3.4705-12.963-0.82892-2.0753-1.6578-4.1506-2.4868-6.2259-0.60739 2.8319-1.2148 5.6638-1.8222 8.4957z" color="#000000" fill-rule="evenodd" stroke-width="1.949"/>
</g>
</svg>
